<svg width="151" height="80" viewBox="0 0 151 80" fill="none" xmlns="http://www.w3.org/2000/svg">
<g clip-path="url(#clip0_6_106)">
<path opacity="0.5" d="M37.1322 0.329676L1.03807 22.5843C-0.015352 23.2338 -0.296471 24.6919 0.410181 25.8411L33.9771 80.4272C34.6838 81.5763 36.1106 81.9814 37.164 81.3318L73.2581 59.0772C74.3116 58.4277 74.5927 56.9696 73.886 55.8204L40.3191 1.23433C39.6124 0.0851879 38.1856 -0.319838 37.1322 0.329676Z" fill="#D40000"/>
<path opacity="0.5" d="M36.4891 2.6153L3.36576 23.0383C2.24553 23.729 1.95269 25.2895 2.71169 26.5238L21.2816 56.7219C22.0406 57.9562 23.564 58.3968 24.6843 57.7061L57.8076 37.2832C58.9279 36.5925 59.2207 35.032 58.4617 33.7977L39.8918 3.59951C39.1328 2.36524 37.6093 1.92459 36.4891 2.6153Z" fill="#550000"/>
<path opacity="0.5" d="M58.5789 38.5374L25.4555 58.9604C24.3353 59.6511 23.7727 60.7729 24.199 61.466L34.6274 78.4246C35.0536 79.1178 36.3073 79.1197 37.4275 78.429L70.5509 58.006C71.6711 57.3153 72.2337 56.1935 71.8075 55.5004L61.379 38.5418C60.9528 37.8487 59.6991 37.8467 58.5789 38.5374Z" fill="white"/>
<path opacity="0.5" d="M117.197 0.427754L153.257 22.7367C154.31 23.3878 154.589 24.8463 153.88 25.9944L120.232 80.5299C119.523 81.678 118.096 82.0809 117.043 81.4298L80.9827 59.1209C79.9303 58.4698 79.6513 57.0112 80.3597 55.8632L114.009 1.32762C114.717 0.179539 116.144 -0.223345 117.197 0.427754Z" fill="#01003A"/>
<path opacity="0.5" d="M117.836 2.71436L150.929 23.1871C152.048 23.8795 152.339 25.4405 151.578 26.6736L132.963 56.8438C132.202 58.0769 130.678 58.5153 129.559 57.8229L96.4659 37.3501C95.3467 36.6577 95.0562 35.0968 95.8171 33.8637L114.432 3.69345C115.193 2.46033 116.717 2.02197 117.836 2.71436Z" fill="#258CFF"/>
<path opacity="0.5" d="M95.6927 38.6031L128.785 59.0759C129.905 59.7683 130.466 60.891 130.038 61.5835L119.584 78.5263C119.157 79.2188 117.903 79.2189 116.784 78.5265L83.6916 58.0537C82.5724 57.3614 82.0115 56.2387 82.4387 55.5462L92.8926 38.6033C93.3199 37.9108 94.5735 37.9107 95.6927 38.6031Z" fill="white"/>
<g opacity="0.5">
<path d="M40.3562 20.7766C38.8691 21.7313 37.6408 22.9185 36.7475 24.3448C35.8189 21.0878 33.3067 18.7527 29.695 17.9869C29.59 17.9454 29.4883 17.9283 29.3911 17.932C28.4216 17.8629 28.0924 19.3672 29.1011 19.5809C30.0751 20.1809 31.9144 21.9332 30.9892 23.2147C30.5592 23.8108 29.2822 23.1609 28.8311 22.9347C26.7139 21.8733 25.1638 19.6433 24.9773 17.2868C24.9859 17.2655 24.9922 17.2435 25.0008 17.2223C25.3855 16.2904 24.1128 15.5251 23.6062 16.2553C23.406 16.3928 23.2655 16.6177 23.2697 16.933C23.2705 16.9717 23.276 17.0107 23.2769 17.0497C21.696 21.54 22.8981 26.3538 26.8082 29.2953C26.8926 29.3586 26.9803 29.3996 27.0686 29.4293C27.8072 29.9885 28.9922 31.1228 28.2461 32.0593C27.0266 33.5897 24.9766 31.5219 23.8993 30.8508C21.8109 29.5504 19.0811 29.5487 16.7282 29.9296C15.8043 30.0789 16.0366 31.296 16.7931 31.5243C19.877 34.0851 20.2103 37.646 21.3743 41.2398C22.2004 43.7906 23.7239 46.1008 25.8771 47.7099C29.8124 50.651 35.0062 50.2687 39.214 48.1623C43.6976 45.9176 48.302 40.7729 47.7334 35.4569C47.1884 30.3633 42.8254 26.5818 41.6182 21.6485C41.7037 21.0268 41.0401 20.3376 40.3562 20.7766ZM29.906 38.6559C30.5866 38.7163 31.2119 38.9207 31.7543 39.2528L31.7938 39.2903C32.4956 39.8637 33.6282 40.3404 34.5107 39.7962C34.6421 39.7151 34.7651 39.6121 34.8763 39.491C35.1708 39.1697 35.3034 38.7757 35.2594 38.3509C35.1825 37.6111 34.6061 36.9552 34.136 36.6188C34.0971 36.5909 34.0557 36.5679 34.0077 36.5482C33.0847 35.8267 32.4975 34.8324 32.3345 33.7443C33.017 34.6786 33.9784 35.3067 34.9675 35.4357C35.7473 35.5364 36.4057 35.1002 36.5744 34.3616C36.6216 34.1573 36.6356 33.9514 36.6183 33.745C37.2413 34.3989 37.5699 35.2897 37.5748 36.3542C37.575 36.3791 37.5773 36.4011 37.581 36.4282C37.5713 36.638 37.6721 36.828 37.8554 36.9412C38.1981 37.1528 38.6897 36.9859 38.7954 36.5856C39.0078 35.7777 39.4403 35.0758 40.0824 34.4965C40.4159 35.4465 40.9252 36.3141 41.4193 37.1557C41.9402 38.0438 42.4797 38.962 42.7958 39.9583C43.4981 42.1698 41.6868 44.471 39.5803 45.77C39.4275 45.8642 39.2754 45.9515 39.1246 46.0323C36.9738 47.1827 34.4712 46.8885 32.8971 45.3003C31.891 44.2853 31.5299 42.8717 31.1811 41.5046C30.8699 40.2882 30.4697 39.3892 29.906 38.6559ZM45.7684 34.2748C46.6218 36.9631 45.7348 39.5897 44.0991 41.8138C44.1793 41.3763 44.2044 40.9301 44.1562 40.4797C44.0014 39.0345 43.2537 37.7874 42.5308 36.5814C41.9463 35.6062 41.3417 34.5984 41.0669 33.5026C41.0836 33.2731 40.9674 33.0385 40.7704 32.91C40.5807 32.7857 40.348 32.7859 40.1374 32.9158C40.1374 32.9158 40.1374 32.9158 40.1371 32.916C39.4625 33.3492 38.904 33.8662 38.4728 34.4562C37.9004 32.9207 36.6148 31.8462 34.9152 31.4881C34.8399 31.4583 34.7625 31.4443 34.7058 31.4476C34.3141 31.4206 33.9896 31.8158 34.0556 32.1981C34.0938 32.4212 34.2481 32.5863 34.4713 32.6463C34.8259 32.8723 35.3423 33.3657 35.4278 33.7971C35.4579 33.9502 35.4321 34.0811 35.3232 34.221C35.2443 34.2697 35.038 34.271 34.493 33.9981C33.4897 33.4952 32.7538 32.4299 32.6508 31.3367C32.7506 31.0793 32.6781 30.7969 32.4633 30.614C32.2016 30.3908 31.8255 30.4048 31.6316 30.6532C31.4837 30.7675 31.4045 30.9369 31.4076 31.1338L31.4091 31.1635C30.5811 33.5613 31.3099 36.0587 33.2727 37.5353C33.3192 37.5697 33.3692 37.5973 33.4255 37.6188C33.7897 37.8994 34.014 38.1859 34.0415 38.4077C34.0533 38.5025 34.0293 38.5843 33.9653 38.6645C33.9178 38.724 33.866 38.7715 33.8118 38.8049C33.4261 39.0428 32.8177 38.5931 32.373 38.2643C32.2397 38.1658 32.1177 38.0758 32.0132 38.0109C31.0825 37.4317 29.8187 37.2664 28.2566 37.519C27.9465 37.5697 27.7597 37.825 27.7988 38.1283C27.831 38.377 28.0002 38.5933 28.2253 38.6789C29.3858 39.6572 29.7412 40.9501 30.1175 42.3185C30.2222 42.699 30.33 43.0918 30.4571 43.4841C30.9078 44.8766 31.7186 46.0406 32.8012 46.8497C33.5149 47.3828 34.3354 47.7241 35.2147 47.8753C31.7888 48.6289 28.1696 47.8278 25.5765 45.2118C23.53 43.1471 22.7836 40.2656 22.087 37.5366C21.4853 35.1802 20.6563 33.1273 19.1019 31.4005C20.765 31.4061 22.3644 31.8071 23.8321 32.7134C23.8536 32.7347 23.8711 32.7568 23.8958 32.777C25.4424 34.0405 27.8955 34.9389 29.4796 33.211C31.0459 31.5022 29.6019 29.1811 28.0739 28.0872C28.0013 28.0354 27.9267 28.0003 27.8514 27.9728C25.4518 26.1175 24.1988 23.4602 24.2674 20.6505C25.4385 22.902 27.5327 24.7567 29.9834 25.0752C31.3211 25.249 32.443 24.5784 32.7495 23.2393C32.9256 22.4685 32.8352 21.7331 32.5739 21.0558C34.4206 22.4265 35.4499 24.568 35.4621 27.2596C35.4621 27.3075 35.4696 27.3499 35.4758 27.393C35.3958 28.3237 36.8795 28.6203 37.1424 27.6231C37.6515 25.69 38.7321 24.1523 40.2268 22.9449C41.4849 27.0085 44.4804 30.2202 45.7684 34.2748Z" fill="#FF2A2A"/>
</g>
<g opacity="0.5">
<path d="M116.745 23.5062L116.77 23.4932L116.799 23.4807L131.959 16.8769L132.848 33.4389L132.848 33.4698C132.895 37.0039 132.18 40.6136 130.367 43.5648C129.587 44.8318 128.595 45.9711 127.378 46.8896C126.163 47.8093 124.721 48.5018 123.086 48.8879L123.086 48.8873C119.576 49.7173 116.046 49.0415 113.203 47.2799C110.357 45.522 108.175 42.6628 107.345 39.148C106.957 37.5109 106.931 35.9098 107.207 34.4106C107.484 32.9084 108.058 31.5116 108.839 30.246C110.664 27.3009 113.567 25.0448 116.745 23.5062ZM110.286 34.9799C110.088 36.0611 110.102 37.1991 110.391 38.4276C111.025 41.1097 112.676 43.2686 114.847 44.6143C117.02 45.9563 119.687 46.4692 122.366 45.8371C123.593 45.5464 124.615 45.049 125.493 44.3874C126.369 43.7255 127.101 42.8929 127.704 41.9169C129.105 39.6598 129.765 36.6015 129.717 33.5326L129.075 21.5512L118.086 26.3383C115.326 27.6704 112.892 29.6294 111.502 31.8939C110.9 32.87 110.485 33.8987 110.286 34.9799Z" fill="#59C6FF"/>
<path d="M126.253 32.8559C126.689 35.2617 126.392 40.6998 123.254 42.6728C119.75 44.8767 118.799 41.6891 121.022 40.2967C125.31 37.6111 126.253 32.8559 126.253 32.8559Z" fill="#59C6FF"/>
</g>
<path d="M75.3318 21.1681L76.1332 20.3656L74.2957 18.5256L74.6896 18.1311C75.3133 17.5066 76.1593 17.1557 77.0414 17.1557C79.6282 17.1557 81.7431 19.3065 81.7431 21.9166C81.7431 24.5858 79.5803 26.7855 76.9346 26.7855C75.7028 26.7855 74.4736 26.3155 73.5345 25.3752L72.4011 26.5101C73.6529 27.7635 75.2951 28.3904 76.9346 28.3904C80.4854 28.3904 83.3459 25.4521 83.3459 21.9166C83.3459 18.4401 80.5332 15.5508 77.0414 15.5508C75.7342 15.5508 74.4806 16.0707 73.5562 16.9963L73.1623 17.3907L71.3247 15.5508L70.5233 16.3532V21.1681H75.3318Z" fill="#00171F"/>
<path d="M62.4 45.256V36.92H61.92C61.504 36.92 61.168 36.9413 60.912 36.984C60.656 37.0267 60.4693 37.1067 60.352 37.224C60.2347 37.3307 60.1653 37.48 60.144 37.672L59.984 39.592H58.544V35.64H69.264V39.592H67.808L67.664 37.672C67.6533 37.48 67.584 37.3307 67.456 37.224C67.3387 37.1067 67.152 37.0267 66.896 36.984C66.64 36.9413 66.304 36.92 65.888 36.92H65.408V45.256C65.408 45.4907 65.504 45.6453 65.696 45.72C65.888 45.7947 66.1227 45.832 66.4 45.832H66.656V47H61.136V45.832H61.408C61.6853 45.832 61.92 45.7947 62.112 45.72C62.304 45.6453 62.4 45.4907 62.4 45.256ZM76.9694 36.76C76.5214 36.76 76.1214 36.8613 75.7694 37.064C75.428 37.2667 75.14 37.56 74.9054 37.944C74.6707 38.328 74.4947 38.8027 74.3774 39.368C74.26 39.9333 74.2014 40.584 74.2014 41.32C74.2014 42.0773 74.26 42.744 74.3774 43.32C74.5054 43.8853 74.692 44.36 74.9374 44.744C75.1827 45.1173 75.4867 45.4 75.8494 45.592C76.2227 45.784 76.6547 45.88 77.1454 45.88C77.732 45.88 78.228 45.752 78.6334 45.496C79.0387 45.24 79.3747 44.8827 79.6414 44.424C79.908 43.9653 80.1107 43.4373 80.2494 42.84L81.4654 43.368C81.2734 44.1467 80.98 44.8293 80.5854 45.416C80.1907 45.992 79.6787 46.44 79.0494 46.76C78.42 47.08 77.6627 47.24 76.7774 47.24C75.9347 47.24 75.1614 47.1067 74.4574 46.84C73.764 46.5733 73.1614 46.184 72.6494 45.672C72.1374 45.1493 71.7427 44.5253 71.4654 43.8C71.188 43.0747 71.0494 42.248 71.0494 41.32C71.0494 40.392 71.1934 39.5653 71.4814 38.84C71.7694 38.104 72.164 37.48 72.6654 36.968C73.1774 36.456 73.764 36.0667 74.4254 35.8C75.0974 35.5333 75.8174 35.4 76.5854 35.4C77.3534 35.4 77.988 35.5387 78.4894 35.816C79.0014 36.0933 79.412 36.4827 79.7214 36.984C80.0307 37.4853 80.26 38.072 80.4094 38.744L79.6574 38.376L79.9614 35.592H81.2894V39.368H79.7374C79.5774 38.8453 79.3747 38.392 79.1294 38.008C78.884 37.6133 78.5854 37.3093 78.2334 37.096C77.8814 36.872 77.46 36.76 76.9694 36.76ZM94.1308 43.064V45.384C93.9601 45.576 93.7201 45.784 93.4108 46.008C93.1121 46.2213 92.7494 46.424 92.3228 46.616C91.9068 46.7973 91.4428 46.9467 90.9308 47.064C90.4294 47.1813 89.8908 47.24 89.3148 47.24C88.4401 47.24 87.6401 47.1067 86.9148 46.84C86.2001 46.5733 85.5814 46.184 85.0588 45.672C84.5468 45.16 84.1521 44.5413 83.8748 43.816C83.5974 43.08 83.4588 42.248 83.4588 41.32C83.4588 40.4133 83.6028 39.5973 83.8908 38.872C84.1788 38.136 84.5841 37.512 85.1068 37C85.6294 36.4773 86.2374 36.0827 86.9308 35.816C87.6241 35.5387 88.3761 35.4 89.1868 35.4C89.9654 35.4 90.6108 35.5387 91.1228 35.816C91.6454 36.0827 92.0614 36.456 92.3708 36.936C92.6908 37.416 92.9308 37.9813 93.0908 38.632L92.3388 38.248L92.6108 35.592H93.9708V39.256H92.4188C92.2588 38.7547 92.0508 38.3173 91.7948 37.944C91.5388 37.5707 91.2241 37.2827 90.8508 37.08C90.4881 36.8667 90.0454 36.76 89.5228 36.76C89.0534 36.76 88.6374 36.8613 88.2748 37.064C87.9121 37.2667 87.6028 37.56 87.3468 37.944C87.1014 38.328 86.9148 38.8027 86.7868 39.368C86.6694 39.9333 86.6108 40.584 86.6108 41.32C86.6108 42.0987 86.6748 42.776 86.8028 43.352C86.9308 43.928 87.1174 44.4027 87.3628 44.776C87.6188 45.1387 87.9228 45.416 88.2748 45.608C88.6374 45.7893 89.0481 45.88 89.5068 45.88C89.8481 45.88 90.1414 45.8427 90.3868 45.768C90.6321 45.6827 90.8348 45.5867 90.9948 45.48C91.1654 45.3733 91.2934 45.2773 91.3788 45.192V43.064C91.3788 42.8187 91.2828 42.6587 91.0908 42.584C90.8988 42.4987 90.6534 42.456 90.3548 42.456H90.0828V41.288H95.1388V42.456H94.9468C94.7014 42.456 94.5041 42.4987 94.3548 42.584C94.2054 42.6587 94.1308 42.8187 94.1308 43.064Z" fill="white"/>
<path d="M59.472 60.928C59.888 60.928 60.2347 60.88 60.512 60.784C60.7893 60.6773 60.9973 60.5173 61.136 60.304C61.2747 60.08 61.344 59.792 61.344 59.44C61.344 59.1413 61.2693 58.8907 61.12 58.688C60.9707 58.4747 60.7627 58.2987 60.496 58.16C60.24 58.0213 59.9253 57.8987 59.552 57.792C59.1893 57.6747 58.7787 57.5573 58.32 57.44C57.872 57.3227 57.44 57.1787 57.024 57.008C56.6187 56.8373 56.2507 56.6187 55.92 56.352C55.6 56.0747 55.344 55.7333 55.152 55.328C54.9707 54.912 54.88 54.4 54.88 53.792C54.88 53.056 55.0453 52.4373 55.376 51.936C55.7173 51.4347 56.1813 51.056 56.768 50.8C57.3547 50.5333 58.0267 50.4 58.784 50.4C59.4347 50.4 59.9893 50.4907 60.448 50.672C60.9067 50.8533 61.2853 51.1467 61.584 51.552C61.8933 51.9573 62.1387 52.5013 62.32 53.184L61.632 52.8L61.952 50.592H63.168V53.76H61.744C61.616 53.312 61.424 52.9387 61.168 52.64C60.912 52.3307 60.608 52.096 60.256 51.936C59.904 51.776 59.5093 51.696 59.072 51.696C58.688 51.696 58.368 51.7493 58.112 51.856C57.8667 51.9627 57.6853 52.1173 57.568 52.32C57.4507 52.512 57.392 52.752 57.392 53.04C57.392 53.328 57.456 53.568 57.584 53.76C57.7227 53.9413 57.9147 54.096 58.16 54.224C58.416 54.3413 58.7147 54.448 59.056 54.544C59.408 54.6293 59.7867 54.7253 60.192 54.832C60.6827 54.9493 61.1467 55.0933 61.584 55.264C62.032 55.424 62.4267 55.6373 62.768 55.904C63.12 56.1707 63.3973 56.512 63.6 56.928C63.8027 57.3333 63.904 57.84 63.904 58.448C63.904 59.2587 63.7333 59.9467 63.392 60.512C63.0613 61.0773 62.5813 61.5093 61.952 61.808C61.3333 62.096 60.5813 62.24 59.696 62.24C59.0133 62.24 58.3893 62.144 57.824 61.952C57.2587 61.7493 56.7733 61.4133 56.368 60.944C55.9733 60.4747 55.6747 59.84 55.472 59.04L56.192 59.44L55.888 62.016H54.592V58.352H56.128C56.3093 58.928 56.5653 59.408 56.896 59.792C57.2267 60.176 57.6107 60.464 58.048 60.656C58.496 60.8373 58.9707 60.928 59.472 60.928ZM72.6805 55.568L70.9205 62.032H68.1205L66.3285 55.264C66.2858 55.0933 66.2218 54.9653 66.1365 54.88C66.0512 54.784 65.9445 54.72 65.8165 54.688C65.6992 54.6453 65.5552 54.624 65.3845 54.624H65.3205V53.504H70.1045V54.592H70.0565C69.8752 54.592 69.7045 54.5973 69.5445 54.608C69.3952 54.6187 69.2725 54.6347 69.1765 54.656C69.0805 54.6667 69.0325 54.6933 69.0325 54.736L70.4885 60.72L70.0245 60.912L72.0085 53.504H74.3765L76.2805 60.72L75.8005 60.88L77.3365 54.928C77.3365 54.864 77.2885 54.8107 77.1925 54.768C77.1072 54.7147 76.9898 54.672 76.8405 54.64C76.7018 54.608 76.5418 54.592 76.3605 54.592H76.3125V53.504H79.6085V54.624H79.5445C79.3845 54.624 79.2405 54.6507 79.1125 54.704C78.9845 54.7467 78.8778 54.8213 78.7925 54.928C78.7072 55.0347 78.6378 55.1893 78.5845 55.392L76.7925 62.032H73.9765L72.2965 55.488L72.6805 55.568ZM86.4144 56.864V57.904C85.977 57.968 85.5984 58.048 85.2784 58.144C84.9584 58.2293 84.6864 58.3307 84.4624 58.448C84.249 58.5547 84.0784 58.6773 83.9504 58.816C83.8224 58.9547 83.7264 59.1093 83.6624 59.28C83.609 59.44 83.5824 59.616 83.5824 59.808C83.5824 60.064 83.625 60.2773 83.7104 60.448C83.7957 60.608 83.9184 60.7253 84.0784 60.8C84.2384 60.8747 84.425 60.912 84.6384 60.912C84.873 60.912 85.0917 60.8533 85.2944 60.736C85.497 60.6187 85.689 60.4427 85.8704 60.208C86.0624 59.9627 86.2437 59.664 86.4144 59.312L86.4784 60.272C86.2864 60.6987 86.057 61.0507 85.7904 61.328C85.5237 61.6053 85.2144 61.8187 84.8624 61.968C84.521 62.1067 84.1157 62.176 83.6464 62.176C83.0704 62.176 82.5797 62.096 82.1744 61.936C81.769 61.7653 81.4597 61.5147 81.2464 61.184C81.0437 60.8533 80.9424 60.4373 80.9424 59.936C80.9424 59.4773 81.0437 59.088 81.2464 58.768C81.4597 58.4373 81.7904 58.1547 82.2384 57.92C82.6864 57.6853 83.2517 57.4827 83.9344 57.312C84.6277 57.1413 85.4544 56.992 86.4144 56.864ZM86.4144 62L86.2864 60.304L86.1424 60.32V55.776C86.1424 55.5093 86.0997 55.2907 86.0144 55.12C85.9397 54.9493 85.8117 54.8267 85.6304 54.752C85.449 54.6667 85.2037 54.624 84.8944 54.624C84.4357 54.624 84.057 54.6987 83.7584 54.848C83.4597 54.9867 83.2464 55.152 83.1184 55.344C83.033 55.2693 82.985 55.1893 82.9744 55.104C82.9637 55.008 82.985 54.9173 83.0384 54.832C83.1024 54.7467 83.193 54.672 83.3104 54.608C83.4277 54.544 83.5717 54.5067 83.7424 54.496V56.288H81.4704V54.368C81.6304 54.2507 81.8704 54.112 82.1904 53.952C82.521 53.792 82.9317 53.6533 83.4224 53.536C83.9237 53.408 84.505 53.344 85.1664 53.344C85.7317 53.344 86.2437 53.3973 86.7024 53.504C87.1717 53.6107 87.5717 53.776 87.9024 54C88.233 54.224 88.4837 54.512 88.6544 54.864C88.8357 55.2053 88.9264 55.616 88.9264 56.096V60.352C88.9264 60.4693 88.9584 60.56 89.0224 60.624C89.0864 60.6773 89.177 60.7253 89.2944 60.768C89.4224 60.8 89.577 60.8267 89.7584 60.848L89.8544 60.88V62H86.4144ZM96.4193 65.568H91.4113V64.528H91.4433C91.6246 64.528 91.7793 64.5067 91.9073 64.464C92.0353 64.4213 92.1366 64.3467 92.2113 64.24C92.2859 64.144 92.3233 64.0053 92.3233 63.824V55.216C92.3233 55.1093 92.2966 55.024 92.2433 54.96C92.1899 54.896 92.1046 54.848 91.9873 54.816C91.8699 54.7733 91.7206 54.7307 91.5393 54.688L91.3953 54.656V53.504H94.8993L95.0433 55.76L95.1713 55.792V64.384C95.1713 64.416 95.2246 64.4427 95.3313 64.464C95.4486 64.4853 95.5873 64.5013 95.7473 64.512C95.9073 64.5227 96.0619 64.528 96.2113 64.528H96.4193V65.568ZM97.6833 62.176C97.2246 62.176 96.8193 62.1067 96.4673 61.968C96.1153 61.8293 95.7953 61.6267 95.5073 61.36C95.2299 61.0827 94.9793 60.752 94.7553 60.368V58.8C94.9793 59.184 95.1926 59.5147 95.3953 59.792C95.5979 60.0693 95.8219 60.2827 96.0673 60.432C96.3126 60.5813 96.5899 60.656 96.8993 60.656C97.1979 60.656 97.4539 60.592 97.6673 60.464C97.8806 60.3253 98.0566 60.128 98.1953 59.872C98.3339 59.616 98.4353 59.3067 98.4993 58.944C98.5739 58.5707 98.6113 58.144 98.6113 57.664C98.6113 57.2053 98.5793 56.8 98.5153 56.448C98.4619 56.096 98.3713 55.8027 98.2433 55.568C98.1153 55.3333 97.9499 55.1573 97.7473 55.04C97.5446 54.9227 97.3046 54.864 97.0273 54.864C96.7073 54.864 96.4193 54.9387 96.1633 55.088C95.9179 55.2373 95.6833 55.4667 95.4593 55.776C95.2353 56.0747 95.0006 56.448 94.7553 56.896V55.52C95.0113 55.0507 95.2833 54.656 95.5713 54.336C95.8593 54.016 96.1846 53.7707 96.5473 53.6C96.9099 53.4293 97.3366 53.344 97.8273 53.344C98.6059 53.344 99.2726 53.5253 99.8273 53.888C100.382 54.2507 100.803 54.7573 101.091 55.408C101.39 56.0587 101.539 56.8107 101.539 57.664C101.539 58.5387 101.379 59.3173 101.059 60C100.75 60.672 100.307 61.2053 99.7313 61.6C99.1553 61.984 98.4726 62.176 97.6833 62.176Z" fill="white"/>
</g>
<defs>
<clipPath id="clip0_6_106">
<rect width="151" height="80" fill="white"/>
</clipPath>
</defs>
</svg>
